HIERARCHY
ROOT Hips
{
    OFFSET   0.000000   0.000000   0.000000
    CHANNELS 6 Xposition Yposition Zposition Zrotation Xrotation Yrotation
    JOINT Chest
    {
        OFFSET   0.000000   8.007230   0.000000
        CHANNELS 3 Zrotation Xrotation Yrotation
        JOINT Chest2
        {
            OFFSET   0.000000  22.077100   0.000000
            CHANNELS 3 Zrotation Xrotation Yrotation
            JOINT Neck
            {
                OFFSET   0.000000  23.254800  -0.000021
                CHANNELS 3 Zrotation Xrotation Yrotation
                JOINT Head
                {
                    OFFSET   0.000000  14.370000   1.956610
                    CHANNELS 3 Zrotation Xrotation Yrotation
                    End Site
                    {
                        OFFSET   0.000000  19.566000   0.000000
                    }
                }
            }
            JOINT LeftCollar
            {
                OFFSET   3.911900  19.017000  -0.467063
                CHANNELS 3 Zrotation Xrotation Yrotation
                JOINT LeftShoulder
                {
                    OFFSET  10.383700   0.000000   0.000000
                    CHANNELS 3 Zrotation Xrotation Yrotation
                    JOINT LeftElbow
                    {
                        OFFSET  26.662100   0.001529   0.000325
                        CHANNELS 3 Zrotation Xrotation Yrotation
                        JOINT LeftWrist
                        {
                            OFFSET  28.869000  -0.000011  -0.000096
                            CHANNELS 3 Zrotation Xrotation Yrotation
                            JOINT LeftFinger0
                            {
                                OFFSET   2.044650  -2.323460   3.252850
                                CHANNELS 3 Zrotation Xrotation Yrotation
                                JOINT LeftFinger01
                                {
                                    OFFSET   3.088130   0.000000   0.000000
                                    CHANNELS 3 Zrotation Xrotation Yrotation
                                    JOINT LeftFinger02
                                    {
                                        OFFSET   2.639460   0.000000   0.000000
                                        CHANNELS 3 Zrotation Xrotation Yrotation
                                        End Site
                                        {
                                            OFFSET   2.582190   0.000000   0.000000
                                        }
                                    }
                                }
                            }
                            JOINT LeftFinger1
                            {
                                OFFSET   8.364480   0.000000   3.252850
                                CHANNELS 3 Zrotation Xrotation Yrotation
                                JOINT LeftFinger11
                                {
                                    OFFSET   4.646930   0.000000   0.000000
                                    CHANNELS 3 Zrotation Xrotation Yrotation
                                    JOINT LeftFinger12
                                    {
                                        OFFSET   2.323460   0.000000   0.000000
                                        CHANNELS 3 Zrotation Xrotation Yrotation
                                        End Site
                                        {
                                            OFFSET   2.273050   0.000000   0.000000
                                        }
                                    }
                                }
                            }
                            JOINT LeftFinger2
                            {
                                OFFSET   8.364480   0.000016   1.078090
                                CHANNELS 3 Zrotation Xrotation Yrotation
                                JOINT LeftFinger21
                                {
                                    OFFSET   5.111620   0.000000   0.000000
                                    CHANNELS 3 Zrotation Xrotation Yrotation
                                    JOINT LeftFinger22
                                    {
                                        OFFSET   2.788160   0.000017   0.000000
                                        CHANNELS 3 Zrotation Xrotation Yrotation
                                        End Site
                                        {
                                            OFFSET   2.727660   0.000000   0.000000
                                        }
                                    }
                                }
                            }
                            JOINT LeftFinger3
                            {
                                OFFSET   7.899780   0.000015  -1.078090
                                CHANNELS 3 Zrotation Xrotation Yrotation
                                JOINT LeftFinger31
                                {
                                    OFFSET   4.646920   0.000000   0.000000
                                    CHANNELS 3 Zrotation Xrotation Yrotation
                                    JOINT LeftFinger32
                                    {
                                        OFFSET   2.323470   0.000000   0.000000
                                        CHANNELS 3 Zrotation Xrotation Yrotation
                                        End Site
                                        {
                                            OFFSET   2.273050   0.000000   0.000000
                                        }
                                    }
                                }
                            }
                            JOINT LeftFinger4
                            {
                                OFFSET   7.435090   0.000000  -3.252850
                                CHANNELS 3 Zrotation Xrotation Yrotation
                                JOINT LeftFinger41
                                {
                                    OFFSET   3.717550   0.000000   0.000000
                                    CHANNELS 3 Zrotation Xrotation Yrotation
                                    JOINT LeftFinger42
                                    {
                                        OFFSET   1.858760   0.000000   0.000000
                                        CHANNELS 3 Zrotation Xrotation Yrotation
                                        End Site
                                        {
                                            OFFSET   1.818440   0.000000   0.000000
                                        }
                                    }
                                }
                            }
                        }
                    }
                }
            }
            JOINT RightCollar
            {
                OFFSET  -3.911900  19.017000  -0.467062
                CHANNELS 3 Zrotation Xrotation Yrotation
                JOINT RightShoulder
                {
                    OFFSET -10.383700   0.000015   0.000000
                    CHANNELS 3 Zrotation Xrotation Yrotation
                    JOINT RightElbow
                    {
                        OFFSET -26.662100   0.001341   0.000385
                        CHANNELS 3 Zrotation Xrotation Yrotation
                        JOINT RightWrist
                        {
                            OFFSET -28.869000   0.000025  -0.000080
                            CHANNELS 3 Zrotation Xrotation Yrotation
                            JOINT RightFinger0
                            {
                                OFFSET  -2.044650  -2.323490   3.252850
                                CHANNELS 3 Zrotation Xrotation Yrotation
                                JOINT RightFinger01
                                {
                                    OFFSET  -3.088130   0.000000   0.000000
                                    CHANNELS 3 Zrotation Xrotation Yrotation
                                    JOINT RightFinger02
                                    {
                                        OFFSET  -2.639460   0.000000   0.000000
                                        CHANNELS 3 Zrotation Xrotation Yrotation
                                        End Site
                                        {
                                            OFFSET  -2.582190   0.000000   0.000000
                                        }
                                    }
                                }
                            }
                            JOINT RightFinger1
                            {
                                OFFSET  -8.364480   0.000000   3.252850
                                CHANNELS 3 Zrotation Xrotation Yrotation
                                JOINT RightFinger11
                                {
                                    OFFSET  -4.646930   0.000000   0.000000
                                    CHANNELS 3 Zrotation Xrotation Yrotation
                                    JOINT RightFinger12
                                    {
                                        OFFSET  -2.323470   0.000000   0.000000
                                        CHANNELS 3 Zrotation Xrotation Yrotation
                                        End Site
                                        {
                                            OFFSET  -2.273050   0.000000   0.000000
                                        }
                                    }
                                }
                            }
                            JOINT RightFinger2
                            {
                                OFFSET  -8.364480   0.000000   1.078090
                                CHANNELS 3 Zrotation Xrotation Yrotation
                                JOINT RightFinger21
                                {
                                    OFFSET  -5.111610   0.000000   0.000000
                                    CHANNELS 3 Zrotation Xrotation Yrotation
                                    JOINT RightFinger22
                                    {
                                        OFFSET  -2.788160   0.000000   0.000000
                                        CHANNELS 3 Zrotation Xrotation Yrotation
                                        End Site
                                        {
                                            OFFSET  -2.727660   0.000000   0.000000
                                        }
                                    }
                                }
                            }
                            JOINT RightFinger3
                            {
                                OFFSET  -7.899780   0.000000  -1.078090
                                CHANNELS 3 Zrotation Xrotation Yrotation
                                JOINT RightFinger31
                                {
                                    OFFSET  -4.646920   0.000000   0.000000
                                    CHANNELS 3 Zrotation Xrotation Yrotation
                                    JOINT RightFinger32
                                    {
                                        OFFSET  -2.323470   0.000000   0.000000
                                        CHANNELS 3 Zrotation Xrotation Yrotation
                                        End Site
                                        {
                                            OFFSET  -2.273050   0.000000   0.000000
                                        }
                                    }
                                }
                            }
                            JOINT RightFinger4
                            {
                                OFFSET  -7.435090   0.000000  -3.252850
                                CHANNELS 3 Zrotation Xrotation Yrotation
                                JOINT RightFinger41
                                {
                                    OFFSET  -3.717550   0.000000   0.000000
                                    CHANNELS 3 Zrotation Xrotation Yrotation
                                    JOINT RightFinger42
                                    {
                                        OFFSET  -1.858770   0.000000   0.000000
                                        CHANNELS 3 Zrotation Xrotation Yrotation
                                        End Site
                                        {
                                            OFFSET  -1.818440   0.000000   0.000000
                                        }
                                    }
                                }
                            }
                        }
                    }
                }
            }
        }
    }
    JOINT LeftHip
    {
        OFFSET   9.783010   0.000000   0.000000
        CHANNELS 3 Zrotation Xrotation Yrotation
        JOINT LeftKnee
        {
            OFFSET   0.000070 -41.789100   0.000028
            CHANNELS 3 Zrotation Xrotation Yrotation
            JOINT LeftAnkle
            {
                OFFSET   0.000087 -41.133200  -0.000100
                CHANNELS 3 Zrotation Xrotation Yrotation
                JOINT LeftToe
                {
                    OFFSET   0.000000  -6.358960  14.674500
                    CHANNELS 3 Zrotation Xrotation Yrotation
                    End Site
                    {
                        OFFSET   0.000000   0.000000   3.913200
                    }
                }
            }
        }
    }
    JOINT RightHip
    {
        OFFSET  -9.783020   0.000000   0.000000
        CHANNELS 3 Zrotation Xrotation Yrotation
        JOINT RightKnee
        {
            OFFSET   0.000044 -41.789100  -0.000870
            CHANNELS 3 Zrotation Xrotation Yrotation
            JOINT RightAnkle
            {
                OFFSET  -0.000090 -41.133200  -0.000245
                CHANNELS 3 Zrotation Xrotation Yrotation
                JOINT RightToe
                {
                    OFFSET   0.000000  -6.358960  14.674500
                    CHANNELS 3 Zrotation Xrotation Yrotation
                    End Site
                    {
                        OFFSET   0.000000   0.000000   3.913200
                    }
                }
            }
        }
    }
}
MOTION
Frames: 5
Frame Time:   0.016667
  1.473750  89.426800  -0.093333  -1.296900   0.042184   2.610100   0.699318   2.225860  -0.785012   1.430730   4.441760  -1.598980  -2.537450  -0.384565  -0.007752  -4.163540  -0.775780   5.808990  -6.096470   2.651850  10.352100 -78.750700   2.123400  -0.892271   0.269845   5.206500 -18.375500   9.199150  -3.227940  -1.417790  39.621100  34.065300 -50.215800 -33.665500   0.004399   0.003032 -11.839000   0.008981   0.000415 -32.450100  -2.135040   3.337350 -26.600700  -0.001797   0.006985 -18.622200  -0.003583   0.007966 -30.740800  -3.731010   6.245300 -46.417300  -0.002715   0.002591 -30.913900  -0.003924   0.000586 -27.820800  -4.666910   8.752500 -33.264100  -0.001726   0.001676 -22.153900  -0.011455   0.005841 -28.565100  -4.964070   9.022180 -43.418900  -0.001357   0.006548 -28.928600  -0.007815   0.003774   7.167160   6.061530   8.423060  68.420000  -5.963970   0.356229   1.626140  -1.845270  19.331600 -10.926600   1.416050   3.107510 -55.052400  49.534600  98.511300  23.316800   0.006929  -0.009521   6.657500  -0.000230  -0.006207  28.664000   1.718870   3.156630  23.490900  -0.000842  -0.007079  16.451400  -0.001237  -0.005246  27.670700  -0.941686  -1.781960  30.121500  -0.006550  -0.012888  20.060900  -0.004077  -0.006780  27.956200  -1.093210  -2.058960  31.807500  -0.006844   0.000000  21.183800  -0.004102  -0.009629  31.363800  -1.214430  -1.989900  47.077500  -0.003187  -0.001111  31.353600  -0.006209  -0.005451   3.505760   2.317900  -0.079785   0.039730   0.065389  10.574400  -3.410670  -2.503500  -0.724807  -0.000000   0.000000  -0.000000  -2.272300   3.385120  -4.279440   1.731160   0.326356 -13.813700   0.423639  -2.810040   0.785571   0.000000   0.000000   0.000000
  1.473730  89.426800  -0.099476  -1.296520   0.033469   2.604610   0.699322   2.226330  -0.783627   1.430710   4.442720  -1.596220  -2.537140  -0.362160  -0.007813  -4.164690  -0.730946   5.809600  -6.096370   2.651960  10.351900 -78.750400   2.136580  -0.898068   0.268810   5.205650 -18.369100   9.210160  -3.230030  -1.412680  39.621000  34.065300 -50.215700 -33.665300   0.004398   0.003016 -11.838900   0.008984   0.000417 -32.450000  -2.135020   3.340800 -26.600600  -0.001800   0.006976 -18.622100  -0.003587   0.007965 -30.741200  -3.731000   6.245260 -46.417900  -0.002705   0.002578 -30.914300  -0.003905   0.000590 -27.820400  -4.666860   8.757810 -33.272800  -0.001714   0.001663 -22.159700  -0.011454   0.005843 -28.565400  -4.964040   9.022180 -43.423500  -0.001345   0.006535 -28.928900  -0.007802   0.003779   7.173620   6.056970   8.427870  68.404300  -5.947280   0.364677   1.622550  -1.849620  19.322100 -10.917200   1.416210   3.099720 -55.044400  49.543100  98.522500  23.316600   0.006932  -0.009519   6.657500  -0.000225  -0.006210  28.670700   1.719510   3.152360  23.496400  -0.000846  -0.007076  16.451400  -0.001242  -0.005239  27.670700  -0.941186  -1.784870  30.130300  -0.006547  -0.012893  20.066700  -0.004071  -0.006775  27.956400  -1.091390  -2.055490  31.820600  -0.006845   0.000000  21.192500  -0.004092  -0.009618  31.373800  -1.212440  -1.986510  47.092400  -0.003182  -0.001112  31.363600  -0.006204  -0.005450   3.505850   2.329470  -0.079578   0.039840   0.060308  10.574400  -3.410150  -2.499290  -0.720374  -0.000000   0.000000   0.000000  -2.271480   3.392850  -4.279710   1.731240   0.311037 -13.813200   0.421791  -2.801760   0.791431  -0.000000   0.000000   0.000000
  1.473690  89.426800  -0.109270  -1.295800   0.016477   2.595050   0.699302   2.228850  -0.780894   1.430590   4.447800  -1.590780  -2.536820  -0.324071  -0.007879  -4.167760  -0.654430   5.814240  -6.096220   2.652080  10.351700 -78.749800   2.158090  -0.908874   0.266196   5.202480 -18.354600   9.221370  -3.232120  -1.404150  39.620900  34.065400 -50.215500 -33.665100   0.004394   0.002994 -11.838800   0.008990   0.000419 -32.449800  -2.134990   3.345520 -26.600500  -0.001808   0.006954 -18.622000  -0.003596   0.007964 -30.741600  -3.730960   6.245190 -46.418500  -0.002682   0.002546 -30.914700  -0.003856   0.000600 -27.820000  -4.666940   8.763310 -33.281400  -0.001684   0.001632 -22.165400  -0.011451   0.005848 -28.565700  -4.963980   9.022180 -43.428100  -0.001315   0.006501 -28.929200  -0.007770   0.003791   7.185540   6.046330   8.437080  68.376900  -5.917870   0.373116   1.619450  -1.856890  19.307000 -10.900500   1.417280   3.091930 -55.040500  49.551300  98.537000  23.314900   0.006943  -0.009517   6.657510  -0.000217  -0.006217  28.677200   1.723910   3.148090  23.501900  -0.000856  -0.007070  16.451400  -0.001252  -0.005220  27.670800  -0.937697  -1.787770  30.139100  -0.006542  -0.012904  20.072600  -0.004056  -0.006760  27.956900  -1.085880  -2.045140  31.833700  -0.006845   0.000000  21.201200  -0.004074  -0.009607  31.384100  -1.206290  -1.976540  47.107400  -0.003169  -0.001114  31.373500  -0.006190  -0.005447   3.506010   2.341050  -0.079371   0.039949   0.055226  10.574500  -3.409560  -2.495080  -0.714063  -0.000000   0.000000  -0.000000  -2.270280   3.403950  -4.279990   1.731310   0.295717 -13.812600   0.420069  -2.793480   0.799907  -0.000000   0.000000  -0.000000
  1.473650  89.426800  -0.116189  -1.295050  -0.001645   2.586290   0.699252   2.234370  -0.777938   1.430430   4.458860  -1.584930  -2.538080  -0.291442  -0.007885  -4.172820  -0.588147   5.824290  -6.095260   2.647310  10.351700 -78.749300   2.173100  -0.919693   0.263108   5.195890 -18.334000   9.221530  -3.223570  -1.396710  39.627200  34.065400 -50.215500 -33.664900   0.004383   0.002983 -11.838700   0.009001   0.000418 -32.449800  -2.134960   3.346850 -26.600500  -0.001819   0.006923 -18.621800  -0.003612   0.007965 -30.739000  -3.730920   6.245080 -46.414500  -0.002645   0.002496 -30.912000  -0.003780   0.000614 -27.819800  -4.668340   8.763460 -33.281200  -0.001637   0.001586 -22.165300  -0.011446   0.005855 -28.564000  -4.963900   9.022370 -43.428100  -0.001270   0.006448 -28.927400  -0.007721   0.003807   7.198280   6.030620   8.447000  68.351700  -5.889340   0.371080   1.621240  -1.864260  19.294100 -10.882600   1.426830   3.092440 -55.050900  49.551200  98.539300  23.295400   0.006962  -0.009524   6.648100  -0.000215  -0.006222  28.666100   1.736770   3.169370  23.493400  -0.000870  -0.007061  16.445400  -0.001263  -0.005192  27.671600  -0.925762  -1.768060  30.124500  -0.006537  -0.012914  20.062900  -0.004034  -0.006734  27.957800  -1.074670  -2.024220  31.820000  -0.006845   0.000035  21.192100  -0.004059  -0.009621  31.375000  -1.193550  -1.956470  47.092900  -0.003148  -0.001117  31.363900  -0.006164  -0.005441   3.506150   2.338810  -0.079418   0.039867   0.098604  10.576900  -3.413470  -2.512030  -0.710988   0.000000   0.000000   0.000000  -2.269920   3.406660  -4.278310   1.732590   0.315313 -13.812700   0.421691  -2.799750   0.803819  -0.000000   0.000000   0.000000
  1.473620  89.426700  -0.122544  -1.294100  -0.024028   2.577560   0.699150   2.242270  -0.774226   1.430220   4.474710  -1.577600  -2.542450  -0.259091  -0.007886  -4.178990  -0.522328   5.846800  -6.093700   2.638930  10.352000 -78.748700   2.190030  -0.932337   0.260016   5.187950 -18.310700   9.221210  -3.211030  -1.390330  39.633400  34.065500 -50.215500 -33.664800   0.004368   0.002980 -11.838500   0.009009   0.000414 -32.449800  -2.134940   3.347450 -26.600500  -0.001833   0.006884 -18.621700  -0.003632   0.007967 -30.733800  -3.730870   6.244990 -46.406500  -0.002600   0.002434 -30.906700  -0.003685   0.000634 -27.819500  -4.670580   8.763600 -33.279900  -0.001580   0.001529 -22.164400  -0.011439   0.005863 -28.559900  -4.963800   9.022680 -43.428000  -0.001213   0.006381 -28.923100  -0.007659   0.003828   7.210850   6.012850   8.458290  68.326700  -5.862180   0.366330   1.622410  -1.868710  19.286800 -10.869300   1.435470   3.095910 -55.062500  49.550900  98.542400  23.277400   0.006991  -0.009532   6.638690  -0.000211  -0.006238  28.654100   1.749910   3.198530  23.484200  -0.000888  -0.007051  16.439000  -0.001279  -0.005154  27.672600  -0.912330  -1.739880  30.103000  -0.006529  -0.012926  20.048600  -0.004006  -0.006699  27.958600  -1.063800  -2.003980  31.799300  -0.006843   0.000091  21.178300  -0.004038  -0.009635  31.360000  -1.181130  -1.937170  47.070000  -0.003121  -0.001121  31.348600  -0.006131  -0.005432   3.506290   2.336570  -0.079749   0.039772   0.141979  10.583100  -3.417460  -2.528970  -0.709791   0.000000   0.000000  -0.000000  -2.269660   3.412100  -4.273340   1.733860   0.334909 -13.812900   0.423254  -2.806010   0.806504   0.000000   0.000000   0.000000
